<svg width="300" height="48" viewBox="0 0 300 48" fill="none" xmlns="http://www.w3.org/2000/svg">
<path d="M31.3072 5.80681C37.1768 5.8098 41.9327 10.5704 41.93 16.4399C41.9286 19.4027 40.7131 22.0802 38.7565 24.0067C40.7115 25.9351 41.9241 28.6146 41.9227 31.5776C41.9197 37.4471 37.1592 42.203 31.2897 42.2004C28.4081 42.199 25.7964 41.049 23.8829 39.186C21.9677 41.0469 19.3555 42.1946 16.4743 42.1932C10.6047 42.1902 5.84882 37.4297 5.85146 31.5602C5.85292 28.5974 7.06751 25.9189 9.02406 23.9923C7.06959 22.064 5.85733 19.385 5.85876 16.4225C5.8618 10.5529 10.6223 5.79696 16.4918 5.79966C19.3729 5.80107 21.9842 6.95059 23.8976 8.813C25.8129 6.95217 28.4259 5.80542 31.3072 5.80681Z" fill="#4B4D38"/>
<path d="M290.591 37.7024C288.573 37.7024 286.782 37.291 285.216 36.4682C283.676 35.6188 282.469 34.4245 281.593 32.885C280.744 31.3191 280.319 29.4612 280.319 27.3113C280.319 23.8078 281.181 21.1005 282.907 19.1895C284.658 17.252 287.153 16.2832 290.391 16.2832C292.621 16.2832 294.413 16.7609 295.766 17.7164C297.146 18.6719 298.155 20.0654 298.792 21.8968C299.429 23.7281 299.734 25.9577 299.708 28.5853H284.38L283.743 24.8031H294.811L293.935 26.6743C293.908 24.5244 293.603 23.0115 293.019 22.1356C292.435 21.2598 291.48 20.8218 290.153 20.8218C289.409 20.8218 288.733 21.0076 288.122 21.3792C287.538 21.7508 287.074 22.3745 286.729 23.2504C286.41 24.0997 286.251 25.2808 286.251 26.7937C286.251 28.7047 286.702 30.1778 287.605 31.2129C288.534 32.248 290.007 32.7656 292.024 32.7656C292.767 32.7656 293.497 32.686 294.213 32.5267C294.957 32.3409 295.647 32.1286 296.284 31.8897C296.921 31.6509 297.465 31.4385 297.916 31.2527V36.3487C296.961 36.7469 295.886 37.0654 294.691 37.3042C293.523 37.5697 292.156 37.7024 290.591 37.7024Z" fill="#302F2B"/>
<path d="M270.925 37.6227C269.492 37.6227 268.138 37.4104 266.864 36.9857C265.59 36.5611 264.462 35.9241 263.48 35.0747C262.498 34.2254 261.728 33.1505 261.171 31.8499C260.613 30.5494 260.335 29.0365 260.335 27.3113C260.335 25.4799 260.6 23.8874 261.131 22.5338C261.662 21.1536 262.392 20.0123 263.321 19.1099C264.276 18.2075 265.391 17.5306 266.665 17.0794C267.939 16.6282 269.346 16.4026 270.885 16.4026C271.973 16.4026 273.088 16.5221 274.229 16.7609C275.397 16.9733 276.419 17.2785 277.295 17.6766V22.7726C276.366 22.348 275.45 22.0029 274.548 21.7375C273.672 21.4455 272.77 21.2996 271.841 21.2996C270.168 21.2996 268.815 21.7242 267.78 22.5736C266.771 23.3964 266.267 24.75 266.267 26.6345C266.267 28.6251 266.718 30.1247 267.62 31.1333C268.523 32.1419 270.022 32.6462 272.119 32.6462C273.101 32.6462 274.044 32.4736 274.946 32.1286C275.875 31.7836 276.671 31.4252 277.335 31.0537V36.1099C276.406 36.5876 275.437 36.9592 274.428 37.2246C273.42 37.49 272.252 37.6227 270.925 37.6227Z" fill="#302F2B"/>
<path d="M246.469 37.7024C245.248 37.7024 244.094 37.5829 243.006 37.3441C241.944 37.1317 241.002 36.7734 240.179 36.2691C239.383 35.7383 238.759 35.0349 238.308 34.159C237.857 33.2566 237.631 32.1419 237.631 30.8148C237.631 29.5673 237.883 28.4791 238.387 27.5502C238.918 26.6212 239.715 25.9046 240.776 25.4003C241.838 24.896 243.178 24.6438 244.797 24.6438C245.7 24.6438 246.576 24.7367 247.425 24.9225C248.274 25.1083 249.031 25.3605 249.694 25.679C250.384 25.9975 250.928 26.3425 251.327 26.7141L251.565 29.5806C251.035 29.2621 250.398 29.0099 249.654 28.8242C248.911 28.6384 248.115 28.5455 247.266 28.5455C245.965 28.5455 245.01 28.7445 244.399 29.1427C243.815 29.5142 243.523 30.1114 243.523 30.9342C243.523 31.4385 243.669 31.8897 243.961 32.2879C244.253 32.686 244.638 32.9912 245.116 33.2035C245.62 33.4159 246.138 33.522 246.668 33.522C248.022 33.522 248.964 33.4291 249.495 33.2434C250.053 33.0576 250.331 32.686 250.331 32.1286V24.7235C250.331 23.5025 249.933 22.6267 249.137 22.0958C248.367 21.5384 247.266 21.2598 245.832 21.2598C244.665 21.2598 243.483 21.4721 242.289 21.8968C241.121 22.2949 240.166 22.7859 239.423 23.3698V18.1146C240.113 17.6899 241.174 17.2918 242.608 16.9202C244.067 16.5486 245.7 16.3628 247.505 16.3628C248.142 16.3628 248.845 16.4159 249.615 16.5221C250.384 16.6282 251.154 16.8273 251.924 17.1192C252.693 17.3847 253.397 17.7828 254.034 18.3136C254.697 18.8445 255.228 19.5213 255.626 20.3441C256.024 21.1669 256.223 22.1887 256.223 23.4096L256.184 32.9249C256.184 34.0661 255.799 34.9951 255.029 35.7117C254.259 36.4018 253.145 36.9061 251.685 37.2246C250.252 37.5431 248.513 37.7024 246.469 37.7024Z" fill="#302F2B"/>
<path d="M225.664 37.7024C225.266 37.7024 224.682 37.6626 223.912 37.5829C223.142 37.5033 222.346 37.3308 221.523 37.0654C220.701 36.7734 219.997 36.3355 219.413 35.7516L220.608 33.8804V44.3113H214.795V21.22C214.795 20.3441 215.047 19.6009 215.551 18.9904C216.056 18.38 216.746 17.8757 217.622 17.4776C218.498 17.0794 219.506 16.7875 220.648 16.6017C221.815 16.3894 223.063 16.2832 224.39 16.2832C226.407 16.2832 228.172 16.6282 229.685 17.3183C231.224 17.9819 232.419 19.1099 233.268 20.7024C234.144 22.2949 234.582 24.4713 234.582 27.2317C234.582 29.3019 234.224 31.1333 233.507 32.7258C232.79 34.2918 231.768 35.5127 230.441 36.3886C229.141 37.2644 227.548 37.7024 225.664 37.7024ZM223.912 32.9249C224.974 32.9249 225.85 32.7391 226.54 32.3675C227.23 31.9959 227.747 31.3854 228.092 30.5361C228.464 29.6602 228.65 28.4924 228.65 27.0326C228.65 25.8117 228.517 24.7765 228.252 23.9272C227.986 23.0779 227.522 22.4276 226.858 21.9764C226.221 21.4986 225.319 21.2598 224.151 21.2598C222.877 21.2598 221.961 21.3925 221.404 21.6579C220.873 21.8968 220.608 22.2153 220.608 22.6134V32.0888C221.112 32.3808 221.669 32.5931 222.28 32.7258C222.89 32.8585 223.434 32.9249 223.912 32.9249Z" fill="#302F2B"/>
<path d="M200.934 37.6626C199.581 37.6626 198.36 37.5962 197.272 37.4635C196.183 37.3308 195.175 37.1317 194.246 36.8663C193.317 36.6009 192.414 36.2558 191.539 35.8312V29.7C192.759 30.6821 194.14 31.4252 195.679 31.9295C197.218 32.4338 198.678 32.686 200.058 32.686C201.279 32.686 202.208 32.4604 202.845 32.0092C203.509 31.5314 203.841 30.8148 203.841 29.8593C203.841 29.1427 203.535 28.572 202.925 28.1473C202.341 27.6961 201.558 27.3113 200.576 26.9928C199.594 26.6477 198.492 26.2629 197.272 25.8382C196.502 25.5993 195.745 25.2941 195.002 24.9225C194.259 24.5509 193.596 24.0865 193.012 23.5291C192.428 22.9452 191.963 22.2418 191.618 21.419C191.273 20.5962 191.101 19.5876 191.101 18.3933C191.101 17.305 191.3 16.2566 191.698 15.2481C192.096 14.2395 192.706 13.3371 193.529 12.5408C194.378 11.7445 195.453 11.1208 196.754 10.6696C198.055 10.1919 199.581 9.95298 201.332 9.95298C202.421 9.95298 203.376 10.0193 204.199 10.152C205.048 10.2848 205.858 10.4838 206.628 10.7492C207.397 10.9881 208.18 11.3066 208.976 11.7047V17.9155C208.366 17.4112 207.676 16.9467 206.906 16.5221C206.163 16.0709 205.38 15.6993 204.557 15.4073C203.734 15.1153 202.872 14.9561 201.969 14.9296C201.173 14.903 200.443 14.9826 199.78 15.1684C199.116 15.3542 198.599 15.6595 198.227 16.0841C197.855 16.4823 197.67 16.9998 197.67 17.6368C197.67 18.38 197.895 18.9639 198.346 19.3886C198.798 19.8132 199.421 20.1715 200.218 20.4635C201.014 20.7289 201.903 21.0209 202.885 21.3394C203.973 21.6579 204.969 22.0162 205.871 22.4143C206.8 22.7859 207.61 23.2637 208.3 23.8476C208.99 24.4315 209.521 25.1481 209.892 25.9975C210.264 26.8468 210.45 27.8687 210.45 29.063C210.45 30.6555 210.078 32.1153 209.335 33.4424C208.592 34.743 207.517 35.7781 206.11 36.5478C204.703 37.291 202.978 37.6626 200.934 37.6626Z" fill="#302F2B"/>
<path d="M163.197 37.7024V19.6673C163.568 19.3488 164.232 18.9904 165.187 18.5923C166.143 18.1677 167.231 17.7961 168.452 17.4776C169.699 17.1325 170.947 16.96 172.194 16.96C173.442 16.96 174.424 17.0529 175.14 17.2387C175.857 17.4245 176.401 17.6634 176.773 17.9553V22.2949C176.321 22.1887 175.751 22.1091 175.061 22.056C174.371 22.0029 173.654 21.9764 172.911 21.9764C172.168 21.9499 171.464 21.9499 170.801 21.9764C170.137 22.0029 169.58 22.056 169.129 22.1356V37.7024H163.197Z" fill="#302F2B"/>
<path d="M149.958 38.2996C147.941 38.2996 146.149 37.8882 144.583 37.0654C143.044 36.216 141.836 35.0217 140.96 33.4822C140.111 31.9163 139.686 30.0584 139.686 27.9085C139.686 24.405 140.549 21.6977 142.274 19.7867C144.026 17.8492 146.521 16.8804 149.759 16.8804C151.988 16.8804 153.78 17.3581 155.134 18.3136C156.514 19.2691 157.522 20.6626 158.159 22.494C158.796 24.3253 159.102 26.5548 159.075 29.1825H143.747L143.11 25.4003H154.178L153.302 27.2715C153.276 25.1216 152.97 23.6087 152.386 22.7328C151.803 21.857 150.847 21.419 149.52 21.419C148.777 21.419 148.1 21.6048 147.49 21.9764C146.906 22.348 146.441 22.9717 146.096 23.8476C145.778 24.6969 145.618 25.878 145.618 27.3909C145.618 29.3019 146.07 30.775 146.972 31.8101C147.901 32.8452 149.374 33.3628 151.391 33.3628C152.134 33.3628 152.864 33.2832 153.581 33.1239C154.324 32.9381 155.014 32.7258 155.651 32.4869C156.288 32.248 156.832 32.0357 157.283 31.8499V36.9459C156.328 37.3441 155.253 37.6626 154.059 37.9014C152.891 38.1669 151.524 38.2996 149.958 38.2996Z" fill="#302F2B"/>
<path d="M124.086 37.7024L115.685 17.5572H122.135L128.226 33.0841L126.793 33.1239L132.208 17.5572H138.458L130.058 37.7024H124.086Z" fill="#302F2B"/>
<path d="M104.196 38.2996C100.798 38.2996 98.2372 37.3971 96.512 35.5923C94.8133 33.7609 93.964 31.0802 93.964 27.5502C93.964 23.7547 94.8266 21.0342 96.5518 19.3886C98.3036 17.7164 100.852 16.8804 104.196 16.8804C106.452 16.8804 108.336 17.2652 109.849 18.0349C111.389 18.7781 112.543 19.9327 113.313 21.4986C114.109 23.0646 114.507 25.0818 114.507 27.5502C114.507 31.0802 113.618 33.7609 111.84 35.5923C110.062 37.3971 107.514 38.2996 104.196 38.2996ZM104.196 33.5619C105.178 33.5619 105.987 33.3363 106.624 32.885C107.288 32.4073 107.779 31.7305 108.097 30.8546C108.443 29.9522 108.615 28.8507 108.615 27.5502C108.615 26.0638 108.443 24.896 108.097 24.0466C107.779 23.1708 107.288 22.547 106.624 22.1755C105.961 21.7773 105.151 21.5783 104.196 21.5783C103.187 21.5783 102.364 21.7773 101.727 22.1755C101.09 22.5736 100.613 23.2106 100.294 24.0865C100.002 24.9358 99.8563 26.0904 99.8563 27.5502C99.8563 29.5673 100.201 31.0802 100.891 32.0888C101.608 33.0708 102.709 33.5619 104.196 33.5619Z" fill="#302F2B"/>
<path d="M89.8524 37.7024H83.9601V9.95298H89.8524V37.7024Z" fill="#302F2B"/>
<path d="M70.8266 38.2199C66.5799 38.2199 63.3286 37.1052 61.0725 34.8757C58.843 32.6196 57.7283 29.1427 57.7283 24.4448C57.7283 19.8796 58.8032 16.4292 60.9531 14.0935C63.103 11.7313 66.3942 10.5502 70.8266 10.5502C72.2333 10.5502 73.6533 10.7227 75.0866 11.0677C76.5198 11.4128 77.9133 11.8905 79.2669 12.501V18.1146C77.8867 17.2121 76.5596 16.5619 75.2856 16.1638C74.0116 15.7656 72.8173 15.5666 71.7025 15.5666C70.1365 15.5666 68.8094 15.8452 67.7212 16.4026C66.6596 16.96 65.8368 17.889 65.2529 19.1895C64.6955 20.4901 64.4168 22.2418 64.4168 24.4448C64.4168 26.6477 64.6955 28.3862 65.2529 29.6602C65.8368 30.9342 66.6861 31.8499 67.8009 32.4073C68.9422 32.9381 70.3356 33.2035 71.9812 33.2035C72.9632 33.2035 74.078 33.0178 75.3254 32.6462C76.5729 32.2746 77.8867 31.6376 79.2669 30.7352V36.3487C78.5237 36.7203 77.6744 37.0521 76.7189 37.3441C75.7899 37.6095 74.8079 37.8218 73.7728 37.9811C72.7642 38.1403 71.7821 38.2199 70.8266 38.2199Z" fill="#302F2B"/>
</svg>
