<svg width="136" height="31" viewBox="0 0 136 31" fill="none" xmlns="http://www.w3.org/2000/svg">
<path d="M19.0183 4.5276C22.5839 4.52936 25.4737 7.42121 25.4722 10.9868C25.4714 12.7867 24.732 14.4131 23.5432 15.5835C24.7312 16.755 25.4686 18.3828 25.4678 20.1831C25.4659 23.7487 22.5733 26.6377 19.0076 26.636C17.2572 26.6351 15.6709 25.9365 14.5085 24.8047C13.3451 25.9351 11.7588 26.6324 10.0086 26.6317C6.44294 26.6299 3.55318 23.7381 3.5547 20.1725C3.55561 18.3727 4.2932 16.7451 5.48173 15.5748C4.29459 14.4033 3.55827 12.7758 3.55914 10.9762C3.56115 7.41077 6.45287 4.52175 10.0183 4.52326C11.7682 4.52412 13.3541 5.22255 14.5165 6.35355C15.6799 5.22297 17.2679 4.52682 19.0183 4.5276Z" fill="white"/>
<path d="M41 21.2C39.96 21.2 39.02 20.9867 38.18 20.56C37.34 20.12 36.6733 19.4733 36.18 18.62C35.6867 17.7533 35.44 16.68 35.44 15.4C35.4533 14.1333 35.7 13.0667 36.18 12.2C36.66 11.32 37.3267 10.66 38.18 10.22C39.0333 9.76667 40 9.54 41.08 9.54C42.0533 9.54 42.9 9.72 43.62 10.08C44.34 10.4267 44.92 10.9133 45.36 11.54C45.8133 12.1667 46.1133 12.9 46.26 13.74H44.54C44.4333 13.1 44.2067 12.5867 43.86 12.2C43.5133 11.8133 43.0933 11.5333 42.6 11.36C42.12 11.1867 41.6133 11.1 41.08 11.1C39.8133 11.1 38.8333 11.4667 38.14 12.2C37.4467 12.92 37.1 13.9533 37.1 15.3C37.1 16.7133 37.44 17.7933 38.12 18.54C38.8 19.2733 39.7667 19.64 41.02 19.64C41.6067 19.64 42.1467 19.5467 42.64 19.36C43.1467 19.1733 43.5733 18.8867 43.92 18.5C44.2667 18.1 44.4933 17.5867 44.6 16.96H46.34C46.1933 17.7867 45.8933 18.52 45.44 19.16C45 19.8 44.4067 20.3 43.66 20.66C42.9267 21.02 42.04 21.2 41 21.2ZM47.9727 21V9.74H49.6127V21H47.9727ZM55.1255 21.2C54.2455 21.2 53.5055 21.02 52.9055 20.66C52.3055 20.3 51.8521 19.8067 51.5455 19.18C51.2521 18.54 51.1055 17.82 51.1055 17.02C51.1055 16.1933 51.2521 15.4667 51.5455 14.84C51.8521 14.2 52.3055 13.7 52.9055 13.34C53.5055 12.98 54.2521 12.8 55.1455 12.8C56.4521 12.8 57.4455 13.1867 58.1255 13.96C58.8055 14.7333 59.1455 15.7533 59.1455 17.02C59.1455 17.8067 58.9988 18.52 58.7055 19.16C58.4255 19.7867 57.9855 20.2867 57.3855 20.66C56.7988 21.02 56.0455 21.2 55.1255 21.2ZM55.1255 19.78C55.7788 19.78 56.2788 19.64 56.6255 19.36C56.9721 19.08 57.2055 18.7267 57.3255 18.3C57.4588 17.86 57.5255 17.4133 57.5255 16.96C57.5255 16.5067 57.4588 16.0667 57.3255 15.64C57.2055 15.2 56.9721 14.84 56.6255 14.56C56.2788 14.2667 55.7788 14.12 55.1255 14.12C54.4988 14.12 54.0055 14.2667 53.6455 14.56C53.2988 14.84 53.0588 15.2 52.9255 15.64C52.7921 16.0667 52.7255 16.5067 52.7255 16.96C52.7255 17.4133 52.7921 17.86 52.9255 18.3C53.0588 18.7267 53.2988 19.08 53.6455 19.36C54.0055 19.64 54.4988 19.78 55.1255 19.78ZM66.4023 12.82H68.0423V13.12L65.1023 21H62.7623L59.8023 13.14V12.82H61.4223L63.9423 19.62H63.9823L66.4023 12.82ZM72.7622 21.2C71.8422 21.2 71.0889 21 70.5022 20.6C69.9155 20.1867 69.4822 19.66 69.2022 19.02C68.9222 18.3667 68.7822 17.6933 68.7822 17C68.7689 16.2133 68.9155 15.5 69.2222 14.86C69.5422 14.22 69.9955 13.7133 70.5822 13.34C71.1822 12.9667 71.8955 12.78 72.7222 12.78C73.4422 12.78 74.0822 12.94 74.6422 13.26C75.2022 13.5667 75.6489 14.0067 75.9822 14.58C76.3155 15.14 76.4955 15.8067 76.5222 16.58C76.5355 16.62 76.5422 16.7 76.5422 16.82C76.5422 16.9267 76.5422 17.02 76.5422 17.1H70.3622C70.3622 17.9533 70.5689 18.62 70.9822 19.1C71.4089 19.5667 71.9955 19.8 72.7422 19.8C73.3022 19.8 73.7755 19.66 74.1622 19.38C74.5622 19.0867 74.8089 18.7 74.9022 18.22H76.5222C76.4422 18.78 76.2422 19.2867 75.9222 19.74C75.6022 20.1933 75.1755 20.5533 74.6422 20.82C74.1089 21.0733 73.4822 21.2 72.7622 21.2ZM70.4222 16.28H74.8622C74.8489 16.1333 74.8089 15.94 74.7422 15.7C74.6889 15.46 74.5822 15.2267 74.4222 15C74.2622 14.76 74.0422 14.56 73.7622 14.4C73.4822 14.24 73.1222 14.16 72.6822 14.16C72.2822 14.16 71.9422 14.2267 71.6622 14.36C71.3822 14.4933 71.1555 14.6733 70.9822 14.9C70.8089 15.1133 70.6755 15.3467 70.5822 15.6C70.5022 15.84 70.4489 16.0667 70.4222 16.28ZM78.2828 21V12.82H79.8228L79.9628 15.18L79.9428 16.94V21H78.2828ZM79.9428 17.32L79.8828 15.52C79.8961 15.2267 79.9628 14.9267 80.0828 14.62C80.2028 14.3 80.3828 14.0067 80.6228 13.74C80.8761 13.46 81.1961 13.24 81.5828 13.08C81.9828 12.9067 82.4628 12.82 83.0228 12.82H83.3628V14.66H83.0028C82.4028 14.66 81.9028 14.72 81.5028 14.84C81.1028 14.9467 80.7895 15.1133 80.5628 15.34C80.3361 15.5667 80.1761 15.8467 80.0828 16.18C79.9895 16.5133 79.9428 16.8933 79.9428 17.32ZM93.7998 21.24C93.1865 21.24 92.5932 21.1667 92.0198 21.02C91.4465 20.8733 90.9265 20.6467 90.4598 20.34C89.9932 20.0333 89.6198 19.64 89.3398 19.16C89.0598 18.6667 88.9132 18.08 88.8998 17.4H90.5798C90.5798 17.44 90.5932 17.5467 90.6198 17.72C90.6465 17.8933 90.7132 18.0933 90.8198 18.32C90.9398 18.5467 91.1132 18.7667 91.3398 18.98C91.5798 19.1933 91.9065 19.3733 92.3198 19.52C92.7465 19.6533 93.2798 19.72 93.9198 19.72C94.4132 19.72 94.8265 19.6667 95.1598 19.56C95.4932 19.4533 95.7598 19.3133 95.9598 19.14C96.1598 18.9667 96.2998 18.7867 96.3798 18.6C96.4732 18.4133 96.5198 18.2467 96.5198 18.1C96.5198 17.6867 96.3865 17.3533 96.1198 17.1C95.8665 16.8467 95.5198 16.6467 95.0798 16.5C94.6398 16.34 94.1532 16.2 93.6198 16.08C93.0998 15.9467 92.5798 15.8067 92.0598 15.66C91.5398 15.5 91.0598 15.2933 90.6198 15.04C90.1932 14.7867 89.8598 14.46 89.6198 14.06C89.3798 13.6467 89.2732 13.12 89.2998 12.48C89.3398 11.8667 89.5532 11.34 89.9398 10.9C90.3265 10.46 90.8532 10.1267 91.5198 9.9C92.1998 9.66 92.9732 9.54 93.8398 9.54C94.6265 9.54 95.3465 9.68 95.9998 9.96C96.6665 10.24 97.1998 10.66 97.5998 11.22C98.0132 11.7667 98.2132 12.4667 98.1998 13.32H96.5798C96.5932 12.8533 96.4998 12.48 96.2998 12.2C96.0998 11.9067 95.8398 11.68 95.5198 11.52C95.2132 11.36 94.8932 11.2533 94.5598 11.2C94.2265 11.1333 93.9265 11.1 93.6598 11.1C92.9132 11.1 92.2932 11.24 91.7998 11.52C91.3198 11.7867 91.0732 12.1667 91.0598 12.66C91.0465 13.0867 91.1732 13.4267 91.4398 13.68C91.7065 13.9333 92.0598 14.1333 92.4998 14.28C92.9398 14.4267 93.4265 14.56 93.9598 14.68C94.4932 14.8 95.0198 14.9333 95.5398 15.08C96.0598 15.2267 96.5332 15.4267 96.9598 15.68C97.3998 15.92 97.7398 16.2467 97.9798 16.66C98.2332 17.0733 98.3465 17.6067 98.3198 18.26C98.2932 18.8867 98.0798 19.42 97.6798 19.86C97.2798 20.3 96.7465 20.64 96.0798 20.88C95.4132 21.12 94.6532 21.24 93.7998 21.24ZM104.721 21.2C104.201 21.2 103.767 21.12 103.421 20.96C103.074 20.7867 102.787 20.5867 102.561 20.36C102.347 20.1333 102.187 19.9267 102.081 19.74C101.974 19.54 101.907 19.4133 101.881 19.36H101.841V24.5H100.141V12.82H101.581L101.861 14.74H101.901C101.914 14.6867 101.967 14.56 102.061 14.36C102.154 14.16 102.307 13.94 102.521 13.7C102.734 13.46 103.014 13.2533 103.361 13.08C103.721 12.9067 104.167 12.82 104.701 12.82C105.514 12.82 106.174 13 106.681 13.36C107.201 13.72 107.587 14.22 107.841 14.86C108.094 15.4867 108.221 16.2133 108.221 17.04C108.221 17.8667 108.087 18.5933 107.821 19.22C107.567 19.8467 107.181 20.3333 106.661 20.68C106.154 21.0267 105.507 21.2 104.721 21.2ZM104.281 19.76C104.867 19.76 105.327 19.6333 105.661 19.38C106.007 19.1133 106.247 18.7733 106.381 18.36C106.527 17.9333 106.601 17.4867 106.601 17.02C106.601 16.5533 106.521 16.1133 106.361 15.7C106.214 15.2867 105.961 14.9533 105.601 14.7C105.254 14.4467 104.787 14.32 104.201 14.32C103.694 14.32 103.267 14.4333 102.921 14.66C102.574 14.8733 102.314 15.1867 102.141 15.6C101.967 16.0133 101.881 16.4867 101.881 17.02C101.881 17.5667 101.967 18.0467 102.141 18.46C102.327 18.8733 102.601 19.1933 102.961 19.42C103.321 19.6467 103.761 19.76 104.281 19.76ZM112.428 21.18C111.681 21.18 111.068 21 110.588 20.64C110.121 20.28 109.775 19.7867 109.548 19.16C109.335 18.5333 109.228 17.8133 109.228 17C109.228 16.16 109.341 15.4267 109.568 14.8C109.795 14.16 110.141 13.66 110.608 13.3C111.088 12.94 111.695 12.76 112.428 12.76C112.881 12.76 113.268 12.8267 113.588 12.96C113.908 13.08 114.175 13.2333 114.388 13.42C114.601 13.6067 114.775 13.8 114.908 14C115.041 14.1867 115.135 14.3533 115.188 14.5H115.228V12.82H116.928V21H115.508L115.228 19.54H115.188C115.135 19.6867 115.041 19.8533 114.908 20.04C114.775 20.2267 114.595 20.4067 114.368 20.58C114.155 20.7533 113.888 20.8933 113.568 21C113.248 21.12 112.868 21.18 112.428 21.18ZM113.088 19.76C113.621 19.76 114.041 19.6467 114.348 19.42C114.655 19.18 114.875 18.8533 115.008 18.44C115.141 18.0267 115.208 17.5533 115.208 17.02C115.208 16.4467 115.135 15.9533 114.988 15.54C114.855 15.1267 114.635 14.8133 114.328 14.6C114.021 14.3733 113.608 14.26 113.088 14.26C112.541 14.26 112.101 14.3867 111.768 14.64C111.448 14.88 111.215 15.2067 111.068 15.62C110.935 16.0333 110.868 16.4933 110.868 17C110.868 17.52 110.935 17.9933 111.068 18.42C111.215 18.8333 111.448 19.16 111.768 19.4C112.101 19.64 112.541 19.76 113.088 19.76ZM122.237 21.2C121.477 21.2 120.79 21.04 120.177 20.72C119.563 20.4 119.077 19.9333 118.717 19.32C118.357 18.7067 118.177 17.96 118.177 17.08C118.203 16.2 118.39 15.44 118.737 14.8C119.097 14.16 119.583 13.6667 120.197 13.32C120.81 12.9733 121.503 12.8 122.277 12.8C123.05 12.8 123.71 12.9467 124.257 13.24C124.817 13.5333 125.257 13.9133 125.577 14.38C125.897 14.8467 126.09 15.3533 126.157 15.9H124.617C124.51 15.38 124.257 14.9733 123.857 14.68C123.457 14.3867 122.95 14.24 122.337 14.24C121.803 14.24 121.35 14.36 120.977 14.6C120.603 14.8267 120.317 15.1467 120.117 15.56C119.917 15.96 119.81 16.4267 119.797 16.96C119.797 17.8 120.017 18.4733 120.457 18.98C120.897 19.4867 121.517 19.74 122.317 19.74C122.89 19.74 123.39 19.5933 123.817 19.3C124.243 19.0067 124.51 18.58 124.617 18.02H126.157C126.09 18.58 125.89 19.1 125.557 19.58C125.237 20.06 124.797 20.4533 124.237 20.76C123.677 21.0533 123.01 21.2 122.237 21.2ZM131.375 21.2C130.455 21.2 129.702 21 129.115 20.6C128.529 20.1867 128.095 19.66 127.815 19.02C127.535 18.3667 127.395 17.6933 127.395 17C127.382 16.2133 127.529 15.5 127.835 14.86C128.155 14.22 128.609 13.7133 129.195 13.34C129.795 12.9667 130.509 12.78 131.335 12.78C132.055 12.78 132.695 12.94 133.255 13.26C133.815 13.5667 134.262 14.0067 134.595 14.58C134.929 15.14 135.109 15.8067 135.135 16.58C135.149 16.62 135.155 16.7 135.155 16.82C135.155 16.9267 135.155 17.02 135.155 17.1H128.975C128.975 17.9533 129.182 18.62 129.595 19.1C130.022 19.5667 130.609 19.8 131.355 19.8C131.915 19.8 132.389 19.66 132.775 19.38C133.175 19.0867 133.422 18.7 133.515 18.22H135.135C135.055 18.78 134.855 19.2867 134.535 19.74C134.215 20.1933 133.789 20.5533 133.255 20.82C132.722 21.0733 132.095 21.2 131.375 21.2ZM129.035 16.28H133.475C133.462 16.1333 133.422 15.94 133.355 15.7C133.302 15.46 133.195 15.2267 133.035 15C132.875 14.76 132.655 14.56 132.375 14.4C132.095 14.24 131.735 14.16 131.295 14.16C130.895 14.16 130.555 14.2267 130.275 14.36C129.995 14.4933 129.769 14.6733 129.595 14.9C129.422 15.1133 129.289 15.3467 129.195 15.6C129.115 15.84 129.062 16.0667 129.035 16.28Z" fill="white"/>
</svg>
