<svg width="134" height="83" viewBox="0 0 134 83" fill="none" xmlns="http://www.w3.org/2000/svg">
<path d="M38.5131 81.8922C26.0266 81.8922 16.4666 78.593 9.83312 71.9945C3.27771 65.3174 0 55.0269 0 41.1229C0 27.6116 3.16065 17.3996 9.48194 10.4869C15.8032 3.49564 25.4803 0 38.5131 0C42.6492 0 46.8244 0.510599 51.0386 1.5318C55.2528 2.553 59.3499 3.96696 63.33 5.7737L66.6057 21.292C62.5476 18.6212 55.3698 17.7924 51.6239 16.6141C47.8779 15.4358 44.3661 14.8466 41.0884 14.8466C36.484 14.8466 32.582 15.6715 29.3823 17.3211C26.2607 18.9707 23.8414 21.7201 22.1245 25.5692C20.4857 29.4184 19.6662 34.6029 19.6662 41.1229C19.6662 47.6428 20.4857 52.7881 22.1245 56.5587C23.8414 60.3292 26.3387 63.0393 29.6164 64.689C32.9722 66.26 37.0693 67.0456 41.9078 67.0456C44.7953 67.0456 48.073 66.4957 51.741 65.3959C55.4089 64.2962 59.2719 62.4109 63.33 59.7401V76.3542C61.1449 77.4539 58.6475 78.4358 55.8381 79.2999C53.1067 80.0855 50.2192 80.7139 47.1756 81.1852C44.21 81.6566 41.3225 81.8922 38.5131 81.8922Z" fill="#302F2B"/>
<path d="M105.606 80.9347C101.567 81.2089 97.9112 81.2696 94.6386 81.1169C91.3661 80.9642 88.3184 80.6087 85.4957 80.0506C82.673 79.4924 79.9143 78.705 77.2196 77.6883L76.0493 60.4485C79.88 62.9625 84.1404 64.7726 88.8303 65.8788C93.5202 66.9849 97.9244 67.3983 102.043 67.1187C105.686 66.8714 108.415 66.0488 110.23 64.6511C112.119 63.1733 112.972 61.091 112.789 58.4043C112.653 56.3892 111.633 54.8465 109.73 53.776C107.902 52.6256 105.492 51.702 102.501 51.0054C99.5043 50.2341 96.144 49.375 92.4196 48.4282C90.0772 47.9125 87.7617 47.2074 85.4732 46.3131C83.1846 45.4188 81.1159 44.2472 79.2671 42.7982C77.4132 41.2746 75.893 39.391 74.7063 37.1473C73.5196 34.9036 72.8123 32.1025 72.5843 28.7441C72.3766 25.6842 72.7705 22.6959 73.766 19.7793C74.7615 16.8627 76.4109 14.2015 78.7141 11.7959C81.0966 9.38492 84.1852 7.41334 87.9799 5.88116C91.7696 4.27434 96.278 3.29352 101.505 2.93868C104.753 2.71824 107.616 2.71127 110.097 2.91776C112.657 3.11887 115.11 3.51463 117.458 4.10503C119.8 4.6208 122.198 5.35777 124.65 6.31596L125.835 23.7797C123.917 22.4854 121.769 21.3191 119.391 20.2809C117.088 19.1627 114.68 18.2765 112.169 17.6222C109.658 16.9679 107.054 16.6949 104.356 16.8031C101.975 16.8897 99.8121 17.2615 97.8675 17.9183C95.923 18.5751 94.4368 19.5382 93.4091 20.8076C92.3763 22.0024 91.9206 23.4953 92.0422 25.2865C92.1841 27.3761 92.9687 28.9723 94.3962 30.075C95.8237 31.1777 97.7533 32.0589 100.185 32.7186C102.612 33.3036 105.321 33.9444 108.312 34.6411C111.62 35.3162 114.658 36.1222 117.427 37.0588C120.27 37.9155 122.777 39.0949 124.948 40.597C127.118 42.0991 128.839 44.0066 130.11 46.3196C131.381 48.6325 132.131 51.4682 132.359 54.8266C132.663 59.3045 131.832 63.4845 129.868 67.3666C127.899 71.1741 124.889 74.3025 120.838 76.7517C116.782 79.1264 111.705 80.5207 105.606 80.9347Z" fill="#302F2B"/>
<path d="M50.183 26.2155C54.9556 26.2178 58.8226 30.0887 58.8204 34.8613C58.8192 37.2702 57.831 39.4469 56.2403 41.0133C57.8299 42.5813 58.8155 44.7597 58.8145 47.1689C58.8122 51.9415 54.9414 55.8086 50.1687 55.8063C47.8258 55.8051 45.7023 54.8709 44.1464 53.3561C42.5892 54.869 40.4655 55.8016 38.1228 55.8005C33.3502 55.7981 29.4831 51.9274 29.4854 47.1547C29.4867 44.7459 30.4738 42.568 32.0645 41.0017C30.4756 39.4337 29.4902 37.2557 29.4913 34.8471C29.4937 30.0746 33.3645 26.2074 38.1371 26.2097C40.4796 26.2108 42.6026 27.1456 44.1584 28.6598C45.7156 27.1468 47.8402 26.2144 50.183 26.2155Z" fill="#4B4D38"/>
</svg>
