<svg width="102" height="102" viewBox="0 0 102 102" fill="none" xmlns="http://www.w3.org/2000/svg">
<circle cx="51" cy="51" r="51" fill="black"/>
<path d="M60.8843 27.5831C68.5494 27.5871 74.7601 33.8045 74.7565 41.4697C74.7545 45.3382 73.1685 48.8348 70.614 51.3505C73.1665 53.8688 74.7488 57.3683 74.7469 61.2373C74.743 68.9023 68.5264 75.113 60.8613 75.1095C57.0994 75.1077 53.6881 73.6087 51.1894 71.1771C48.6884 73.6062 45.2756 75.1019 41.5137 75.1002C33.8487 75.0962 27.638 68.8796 27.6415 61.2145C27.6434 57.3459 29.2284 53.8476 31.783 51.3318C29.2311 48.8135 27.6492 45.3144 27.651 41.446C27.655 33.7811 33.8717 27.5703 41.5366 27.5738C45.2985 27.5756 48.7099 29.0747 51.2086 31.5062C53.7095 29.0771 57.1224 27.5813 60.8843 27.5831Z" fill="white"/>
</svg>
